<?xml version="1.0" encoding="utf-8"?>
<!-- Generator: Adobe Illustrator 16.0.0, SVG Export Plug-In . SVG Version: 6.00 Build 0)  -->
<!DOCTYPE svg PUBLIC "-//W3C//DTD SVG 1.1//EN" "http://www.w3.org/Graphics/SVG/1.1/DTD/svg11.dtd">
<svg version="1.1" id="Layer_1" xmlns="http://www.w3.org/2000/svg" xmlns:xlink="http://www.w3.org/1999/xlink" x="0px" y="0px"
	 width="1024px" height="768px" viewBox="0 0 1024 768" enable-background="new 0 0 1024 768" xml:space="preserve">
<g>
	<path fill="none" stroke="#231F20" stroke-miterlimit="10" d="M294.301,352.728"/>
	<path fill="none" stroke="#231F20" stroke-miterlimit="10" d="M433.262,323.7"/>
	<g>
		<path fill="#34C0CE" d="M-0.909,466.396h56.708l-17.492,41.173c6.279,4.244,10.839,8.883,13.707,13.938
			c2.839,5.039,4.259,11.003,4.259,17.922c0,10.31-3.778,18.984-11.378,26.074c-7.578,7.092-16.912,10.646-28.002,10.646
			c-6.108,0-12.188-1.147-18.203-3.463V542.41c4.559,2.811,8.503,4.236,11.844,4.236c3.67,0,6.747-1.312,9.227-3.936
			c2.48-2.609,3.728-5.85,3.728-9.728c0-4.438-1.857-7.979-5.57-10.618c-3.714-2.652-8.675-3.972-14.912-3.972l7.922-21.099H-0.909
			V466.396z"/>
		<path fill="#34C0CE" d="M121.964,466.396v107.079H91.609V466.396H121.964z"/>
		<path fill="#4D3390" d="M217.816,554.203c-1.743,3.95-4.144,7.478-7.255,10.59c-5.778,5.778-12.46,8.682-20.081,8.682h-0.151
			h-0.33h-34.542v-6.754h34.542c2.896,0,5.678-0.602,8.381-1.842c2.659-1.227,5.119-2.981,7.37-5.233
			c2.466-2.352,4.33-5.084,5.635-8.188c1.276-3.098,1.922-6.208,1.922-9.327c0-7.485-2.251-13.593-6.754-18.303
			c-4.294-4.287-9.915-6.424-16.869-6.424h-10.919c-4.18,0-8.202-0.78-12.051-2.344c-3.865-1.549-7.119-3.55-9.808-6.029
			c-5.556-5.233-8.345-11.873-8.345-19.916c0-6.109,1.441-11.457,4.33-16.06c2.883-4.61,7.069-8.209,12.539-10.775
			c3.319-1.606,7.141-2.774,11.478-3.521c4.353-0.759,8.854-1.125,13.572-1.125c4.517,0,8.925,0.287,13.27,0.89
			c4.331,0.565,8.274,1.461,11.801,2.631l-2.086,6.76c-3.426-1.075-7.09-1.849-10.997-2.33c-3.922-0.479-7.794-0.738-11.65-0.738
			c-4.503,0-8.674,0.316-12.532,0.976c-3.857,0.645-7.126,1.563-9.801,2.725c-1.512,0.752-3.01,1.685-4.516,2.816
			c-1.483,1.134-2.847,2.495-4.087,4.108c-1.226,1.599-2.243,3.527-3.046,5.771c-0.804,2.252-1.219,4.876-1.219,7.873
			c0,6.114,2.028,11.025,6.108,14.775c2.043,1.827,4.588,3.376,7.636,4.66c3.046,1.305,6.302,1.942,9.714,1.942l10.611-0.158
			c4.395,0,8.424,0.717,12.13,2.172c3.698,1.435,6.932,3.557,9.721,6.331c2.896,2.897,5.083,6.338,6.596,10.288
			c1.499,3.965,2.245,8.302,2.245,13.005C220.375,546.217,219.515,550.24,217.816,554.203z"/>
		<path fill="#4D3390" d="M347.937,539.485c-3.097,7.126-7.313,13.335-12.61,18.64c-5.291,5.313-11.514,9.514-18.633,12.617
			c-7.125,3.098-14.739,4.668-22.891,4.668c-8.036,0-15.622-1.57-22.748-4.668c-7.119-3.104-13.32-7.305-18.625-12.617
			c-5.32-5.305-9.506-11.514-12.604-18.64c-3.119-7.118-4.682-14.697-4.682-22.72c0-8.15,1.563-15.778,4.682-22.905
			c3.098-7.14,7.284-13.342,12.604-18.641c5.305-5.297,11.507-9.491,18.625-12.616c7.125-3.098,14.711-4.653,22.748-4.653
			c8.152,0,15.766,1.556,22.891,4.653c7.119,3.125,13.342,7.319,18.633,12.616c5.298,5.299,9.513,11.501,12.61,18.641
			c3.119,7.127,4.667,14.755,4.667,22.905C352.604,524.788,351.055,532.367,347.937,539.485z M341.435,496.592
			c-2.725-6.259-6.431-11.721-11.092-16.388c-4.653-4.653-10.115-8.367-16.374-11.084c-6.273-2.725-12.991-4.086-20.167-4.086
			c-7.075,0-13.744,1.361-20.002,4.086c-6.266,2.717-11.743,6.431-16.396,11.084c-4.646,4.667-8.353,10.129-11.077,16.388
			c-2.746,6.266-4.101,12.984-4.101,20.174c0,7.063,1.355,13.723,4.101,19.996c2.725,6.258,6.431,11.728,11.077,16.381
			c4.653,4.667,10.129,8.373,16.396,11.098c6.258,2.725,12.927,4.086,20.002,4.086c7.177,0,13.894-1.361,20.167-4.086
			c6.259-2.725,11.721-6.431,16.374-11.098c4.661-4.653,8.367-10.123,11.092-16.381c2.731-6.273,4.093-12.934,4.093-19.996
			C345.528,509.576,344.166,502.857,341.435,496.592z"/>
		<path fill="#4D3390" d="M377.825,573.475V466.632h-21.522v-6.596h28.598v106.685h49.001v6.754H377.825z"/>
		<path fill="#4D3390" d="M521.237,550.979c-1.985,4.824-4.874,9.111-8.603,12.854c-3.764,3.75-8.044,6.639-12.854,8.682
			c-4.832,2.029-9.916,3.047-15.271,3.047c-5.462,0-10.582-1.018-15.342-3.047c-4.768-2.043-9.019-4.932-12.776-8.682
			c-3.75-3.742-6.638-8.029-8.674-12.854c-2.029-4.812-3.047-9.908-3.047-15.271v-75.671h7.055v75.671
			c0,4.51,0.839,8.718,2.509,12.618c1.649,3.929,4.036,7.435,7.155,10.524c3.089,3.11,6.603,5.491,10.517,7.154
			c3.894,1.656,8.102,2.48,12.604,2.48c4.51,0,8.726-0.846,12.697-2.58c3.971-1.692,7.42-4.016,10.359-6.976
			c2.947-2.947,5.269-6.41,6.99-10.439c1.715-4.021,2.574-8.272,2.574-12.782v-68.909h-22.82v-6.762h29.875v75.671
			C524.185,541.07,523.217,546.167,521.237,550.979z"/>
		<path fill="#4D3390" d="M583.812,466.798v106.677h-7.07V466.798h-36.793v-6.762h80.819v6.762H583.812z"/>
		<path fill="#4D3390" d="M632.797,573.475v-7.068h18.661v-99.774h-18.661v-6.596h44.364v6.596h-18.648v99.774h18.956v7.068H632.797
			z"/>
		<path fill="#4D3390" d="M804.234,539.485c-3.103,7.126-7.292,13.335-12.604,18.64c-5.313,5.313-11.512,9.514-18.641,12.617
			c-7.117,3.098-14.76,4.668-22.89,4.668c-8.038,0-15.614-1.57-22.734-4.668c-7.117-3.104-13.35-7.305-18.64-12.617
			c-5.313-5.305-9.507-11.514-12.609-18.64c-3.105-7.118-4.66-14.697-4.66-22.72c0-8.15,1.555-15.778,4.66-22.905
			c3.103-7.14,7.297-13.342,12.609-18.641c5.29-5.297,11.522-9.491,18.64-12.616c7.12-3.098,14.696-4.653,22.734-4.653
			c8.13,0,15.772,1.556,22.89,4.653c7.129,3.125,13.328,7.319,18.641,12.616c5.312,5.299,9.501,11.501,12.604,18.641
			c3.113,7.127,4.652,14.755,4.652,22.905C808.887,524.788,807.348,532.367,804.234,539.485z M797.726,496.592
			c-2.726-6.259-6.408-11.721-11.062-16.388c-4.669-4.653-10.146-8.367-16.396-11.084c-6.274-2.725-12.991-4.086-20.167-4.086
			c-7.083,0-13.737,1.361-20.017,4.086c-6.273,2.717-11.715,6.431-16.381,11.084c-4.66,4.667-8.359,10.129-11.093,16.388
			c-2.724,6.266-4.086,12.984-4.086,20.174c0,7.063,1.362,13.723,4.086,19.996c2.733,6.258,6.433,11.728,11.093,16.381
			c4.666,4.667,10.107,8.373,16.381,11.098c6.279,2.725,12.934,4.086,20.017,4.086c7.176,0,13.893-1.361,20.167-4.086
			c6.25-2.725,11.728-6.431,16.396-11.098c4.653-4.653,8.336-10.123,11.062-16.381c2.731-6.273,4.107-12.934,4.107-19.996
			C801.833,509.576,800.457,502.857,797.726,496.592z"/>
		<path fill="#4D3390" d="M837.492,471.766v101.709h-6.909v-120.02l94.309,107.961v-94.468h-22.16v-6.912h28.914v119.532
			L837.492,471.766z"/>
		<path fill="#4D3390" d="M1022.759,554.203c-1.742,3.95-4.136,7.478-7.233,10.59c-5.792,5.778-12.482,8.682-20.096,8.682h-0.143
			h-0.337H960.4v-6.754h34.55c2.881,0,5.67-0.602,8.367-1.842c2.665-1.227,5.132-2.981,7.392-5.233
			c2.465-2.352,4.336-5.084,5.62-8.188c1.289-3.098,1.922-6.208,1.922-9.327c0-7.485-2.246-13.593-6.754-18.303
			c-4.281-4.287-9.909-6.424-16.863-6.424h-10.925c-4.193,0-8.201-0.78-12.053-2.344c-3.856-1.549-7.117-3.55-9.798-6.029
			c-5.573-5.233-8.354-11.873-8.354-19.916c0-6.109,1.442-11.457,4.34-16.06c2.895-4.61,7.067-8.209,12.523-10.775
			c3.312-1.606,7.147-2.774,11.499-3.521c4.329-0.759,8.84-1.125,13.563-1.125c4.519,0,8.918,0.287,13.271,0.89
			c4.323,0.565,8.267,1.461,11.808,2.631l-2.102,6.76c-3.427-1.075-7.097-1.849-11.003-2.33c-3.915-0.479-7.793-0.738-11.649-0.738
			c-4.489,0-8.691,0.316-12.524,0.976c-3.859,0.645-7.12,1.563-9.802,2.725c-1.513,0.752-3.01,1.685-4.494,2.816
			c-1.505,1.134-2.868,2.495-4.109,4.108c-1.227,1.599-2.244,3.527-3.045,5.771c-0.805,2.252-1.221,4.876-1.221,7.873
			c0,6.114,2.038,11.025,6.124,14.775c2.026,1.827,4.573,3.376,7.621,4.66c3.073,1.305,6.292,1.942,9.728,1.942l10.603-0.158
			c4.389,0,8.438,0.717,12.123,2.172c3.707,1.435,6.941,3.557,9.735,6.331c2.885,2.897,5.083,6.338,6.575,10.288
			c1.5,3.965,2.243,8.302,2.243,13.005C1025.311,546.217,1024.464,550.24,1022.759,554.203z"/>
	</g>
	<g>
		<g>
			<defs>
				<polyline id="SVGID_1_" points="563.956,53.593 659.879,53.593 659.879,414.239 563.956,414.239 563.956,53.593 				"/>
			</defs>
			<clipPath id="SVGID_2_">
				<use xlink:href="#SVGID_1_"  overflow="visible"/>
			</clipPath>
			<defs>
				<filter id="Adobe_OpacityMaskFilter" filterUnits="userSpaceOnUse" x="563.956" y="53.593" width="95.923" height="360.646">
					<feFlood  style="flood-color:white;flood-opacity:1" result="back"/>
					<feBlend  in="SourceGraphic" in2="back" mode="normal"/>
				</filter>
			</defs>
			<mask maskUnits="userSpaceOnUse" x="563.956" y="53.593" width="95.923" height="360.646" id="SVGID_3_">
				<g filter="url(#Adobe_OpacityMaskFilter)">
				</g>
			</mask>
			<path clip-path="url(#SVGID_2_)" mask="url(#SVGID_3_)" fill="#4D3490" d="M605.874,159.539l-1.204-1.627l-0.035-8.518
				l1.239,1.506l16.045,19.5l-16.045,20.956l-1.176,1.542l0,0l0.065-8.961l1.11-1.614l9.034-11.801L605.874,159.539 M659.879,53.593
				h-95.923v142.539c23.056,24.275,37.179,57.081,37.179,93.199c0,36.125-14.123,68.939-37.179,93.214v31.695h95.923V53.593"/>
		</g>
	</g>
	<g>
		<g>
			<defs>
				<polyline id="SVGID_4_" points="340.098,164.715 590.324,164.715 590.324,414.929 340.098,414.929 340.098,164.715 				"/>
			</defs>
			<clipPath id="SVGID_5_">
				<use xlink:href="#SVGID_4_"  overflow="visible"/>
			</clipPath>
			<path clip-path="url(#SVGID_5_)" fill="#48C1C6" d="M560.529,208.792l-60.981,61.519c0.86,1.241,1.663,2.502,2.387,3.85l0,0
				c2.868,5.299,4.509,11.399,4.509,17.866c0,20.762-16.848,37.596-37.609,37.596s-37.595-16.833-37.595-37.596
				c0-1.312,0.071-2.595,0.2-3.864h-91.329c0,0.559-0.014,1.104-0.014,1.67l0,0c0,69.075,56.02,125.097,125.095,125.097l0,0
				c69.112,0,125.131-56.021,125.131-125.097C590.324,258.919,579.104,230.607,560.529,208.792"/>
		</g>
	</g>
	<defs>
		<filter id="Adobe_OpacityMaskFilter_1_" filterUnits="userSpaceOnUse" x="465.573" y="67.932" width="88.381" height="221.894">
			
				<feColorMatrix  type="matrix" values="-1 0 0 0 1  0 -1 0 0 1  0 0 -1 0 1  0 0 0 1 0" color-interpolation-filters="sRGB" result="source"/>
			<feFlood  style="flood-color:white;flood-opacity:1" result="back"/>
			<feBlend  in="source" in2="back" mode="normal"/>
		</filter>
	</defs>
	<mask maskUnits="userSpaceOnUse" x="465.573" y="67.932" width="88.381" height="221.894" id="SVGID_6_">
		<g filter="url(#Adobe_OpacityMaskFilter_1_)">
			<polyline fill="#FFFFFF" points="520.567,161.626 512.043,174.96 520.747,185.012 521.815,186.402 521.959,195.586 
				521.959,195.586 520.819,194.289 505.348,176.43 520.496,152.75 521.664,150.929 521.701,159.676 520.567,161.626 			"/>
		</g>
	</mask>
	<polygon mask="url(#SVGID_6_)" fill="#4D3390" points="465.573,155.152 465.573,289.826 553.554,201.616 553.954,67.932 	"/>
	<polygon fill="#47C1C6" points="550.757,54.087 457.429,148.026 339.983,147.811 437.563,54.087 	"/>
	<line fill="none" x1="543.481" y1="139.214" x2="543.481" y2="134.748"/>
	<g>
		<path fill="#808184" d="M72.14,692.707l-29.198-14.516l29.198-14.297l1.1,2.199l-24.854,12.152l24.854,12.316L72.14,692.707z"/>
		<path fill="#808184" d="M118.768,663.455c-2.823-1.796-5.92-2.694-9.292-2.694c-2.419,0-4.684,0.458-6.791,1.374
			c-2.108,0.917-3.941,2.154-5.499,3.712c-1.559,1.559-2.796,3.391-3.711,5.498c-0.917,2.108-1.375,4.372-1.375,6.791
			c0,2.384,0.458,4.638,1.375,6.764c0.916,2.126,2.153,3.986,3.711,5.581c1.558,1.595,3.39,2.851,5.499,3.767
			c2.107,0.917,4.372,1.374,6.791,1.374h8.413v2.31h-8.413c-2.75,0-5.325-0.522-7.726-1.566c-2.401-1.045-4.491-2.456-6.269-4.234
			c-1.778-1.777-3.189-3.867-4.234-6.269c-1.045-2.4-1.567-4.976-1.567-7.726c0-2.749,0.522-5.324,1.567-7.726
			c1.045-2.4,2.465-4.489,4.261-6.269c1.796-1.777,3.895-3.188,6.296-4.233c2.401-1.045,4.958-1.567,7.671-1.567
			c3.885,0,7.459,1.045,10.722,3.135L118.768,663.455z"/>
		<path fill="#808184" d="M172.983,686.246c-1.063,2.438-2.502,4.564-4.316,6.379s-3.941,3.254-6.378,4.316
			c-2.438,1.063-5.05,1.595-7.835,1.595c-2.75,0-5.343-0.532-7.781-1.595c-2.438-1.063-4.563-2.502-6.378-4.316
			c-1.814-1.814-3.253-3.94-4.316-6.379c-1.063-2.438-1.594-5.031-1.594-7.78c0-2.785,0.531-5.397,1.594-7.836
			c1.063-2.437,2.502-4.563,4.316-6.378c1.815-1.814,3.94-3.253,6.378-4.316c2.438-1.063,5.031-1.595,7.781-1.595
			c2.785,0,5.397,0.532,7.835,1.595c2.438,1.063,4.564,2.502,6.378,4.316s3.253,3.941,4.316,6.378
			c1.063,2.438,1.595,5.051,1.595,7.836C174.578,681.215,174.046,683.809,172.983,686.246z M170.756,671.565
			c-0.935-2.145-2.199-4.015-3.794-5.609c-1.595-1.594-3.464-2.858-5.608-3.794c-2.145-0.935-4.445-1.401-6.901-1.401
			c-2.419,0-4.701,0.467-6.846,1.401c-2.145,0.936-4.014,2.2-5.609,3.794c-1.594,1.595-2.859,3.465-3.794,5.609
			c-0.935,2.145-1.402,4.445-1.402,6.9c0,2.42,0.467,4.701,1.402,6.846c0.935,2.145,2.2,4.014,3.794,5.608
			c1.595,1.595,3.464,2.859,5.609,3.794c2.145,0.936,4.426,1.402,6.846,1.402c2.456,0,4.756-0.467,6.901-1.402
			c2.144-0.935,4.014-2.199,5.608-3.794s2.859-3.464,3.794-5.608c0.935-2.145,1.402-4.426,1.402-6.846
			C172.159,676.011,171.691,673.71,170.756,671.565z"/>
		<path fill="#808184" d="M219.859,686.576c-1.045,2.401-2.466,4.491-4.262,6.269c-1.796,1.778-3.896,3.189-6.296,4.234
			c-2.401,1.044-4.958,1.566-7.67,1.566c-2.969,0-5.811-0.623-8.523-1.869v-35.466h-7.313v-2.255h15.836
			c2.749,0,5.324,0.522,7.726,1.567c2.4,1.045,4.49,2.456,6.268,4.233c1.778,1.779,3.189,3.868,4.234,6.269
			c1.044,2.401,1.567,4.977,1.567,7.726S220.904,684.176,219.859,686.576z M217.632,672.088c-0.917-2.126-2.154-3.987-3.711-5.581
			c-1.559-1.595-3.391-2.851-5.499-3.767c-2.108-0.916-4.371-1.375-6.791-1.375h-6.104v33.816c1.87,0.697,3.904,1.045,6.104,1.045
			c2.382,0,4.627-0.458,6.736-1.375c2.107-0.916,3.949-2.153,5.526-3.711c1.576-1.558,2.822-3.391,3.739-5.499
			c0.916-2.107,1.375-4.371,1.375-6.791C219.007,676.469,218.548,674.214,217.632,672.088z"/>
		<path fill="#808184" d="M240.781,697.876v-36.565h-7.313v-2.255h25.403v2.31h-15.671v15.011h15.671v2.31h-15.671v16.881h15.671
			v2.31H240.781z"/>
		<path fill="#808184" d="M338.38,698.646l-6.599-6.598l-2.804,2.804c-1.284,1.284-2.75,2.264-4.399,2.942
			c-1.649,0.678-3.391,1.017-5.224,1.017c-1.87,0-3.639-0.357-5.306-1.072c-1.668-0.715-3.116-1.686-4.344-2.914
			c-1.229-1.228-2.2-2.676-2.915-4.344s-1.072-3.437-1.072-5.307c0-2.529,0.641-4.866,1.925-7.011
			c1.283-2.145,3.024-3.803,5.224-4.976c-1.614-1.723-2.419-3.758-2.419-6.104c0-1.21,0.229-2.346,0.688-3.409
			c0.458-1.063,1.09-1.998,1.897-2.805c0.806-0.806,1.74-1.438,2.804-1.896c1.063-0.458,2.199-0.688,3.409-0.688
			c1.209,0,2.355,0.229,3.437,0.688c1.081,0.458,2.016,1.091,2.804,1.896c0.788,0.807,1.411,1.742,1.87,2.805
			c0.458,1.063,0.688,2.199,0.688,3.409c0,1.174-0.22,2.291-0.66,3.354c-0.44,1.064-1.082,2.017-1.924,2.859l-4.564,4.619
			l10.887,10.832l6.874-6.873l1.649,1.649l-6.873,6.873l6.598,6.599L338.38,698.646z M314.626,674.946
			c-1.979,0.917-3.565,2.302-4.756,4.152c-1.191,1.851-1.787,3.876-1.787,6.075c0,1.577,0.293,3.052,0.879,4.427
			c0.586,1.375,1.393,2.566,2.419,3.574c1.026,1.009,2.227,1.806,3.602,2.392c1.375,0.587,2.832,0.88,4.372,0.88
			c3.115,0,5.773-1.1,7.973-3.299l2.749-2.75L314.626,674.946z M325.211,664.582c-0.349-0.788-0.816-1.476-1.402-2.063
			c-0.587-0.586-1.274-1.044-2.062-1.374c-0.789-0.33-1.622-0.495-2.502-0.495s-1.714,0.165-2.502,0.495
			c-0.789,0.33-1.476,0.788-2.062,1.374c-0.587,0.587-1.045,1.274-1.375,2.063c-0.33,0.788-0.495,1.622-0.495,2.502
			c0,1.796,0.641,3.336,1.925,4.618l4.509,4.51l4.564-4.564c1.283-1.282,1.924-2.804,1.924-4.563
			C325.733,666.204,325.559,665.37,325.211,664.582z"/>
		<path fill="#808184" d="M419.182,686.576c-1.045,2.401-2.466,4.491-4.262,6.269c-1.796,1.778-3.896,3.189-6.296,4.234
			c-2.401,1.044-4.958,1.566-7.67,1.566c-2.969,0-5.811-0.623-8.523-1.869v-35.466h-7.313v-2.255h15.836
			c2.749,0,5.324,0.522,7.726,1.567c2.4,1.045,4.49,2.456,6.268,4.233c1.778,1.779,3.189,3.868,4.234,6.269
			c1.044,2.401,1.567,4.977,1.567,7.726S420.226,684.176,419.182,686.576z M416.955,672.088c-0.917-2.126-2.154-3.987-3.711-5.581
			c-1.559-1.595-3.391-2.851-5.499-3.767c-2.108-0.916-4.371-1.375-6.791-1.375h-6.104v33.816c1.87,0.697,3.904,1.045,6.104,1.045
			c2.382,0,4.627-0.458,6.736-1.375c2.107-0.916,3.949-2.153,5.526-3.711c1.576-1.558,2.822-3.391,3.739-5.499
			c0.916-2.107,1.375-4.371,1.375-6.791C418.329,676.469,417.87,674.214,416.955,672.088z"/>
		<path fill="#808184" d="M440.104,697.876v-36.565h-7.313v-2.255h25.403v2.31h-15.671v15.011h15.671v2.31h-15.671v16.881h15.671
			v2.31H440.104z"/>
		<path fill="#808184" d="M498.168,691.277c-0.587,1.356-1.412,2.566-2.475,3.629c-1.979,1.979-4.271,2.97-6.873,2.97h-0.055h-0.11
			h-11.822v-2.31h11.822c0.99,0,1.942-0.21,2.859-0.632c0.916-0.421,1.759-1.018,2.529-1.787c0.843-0.807,1.484-1.741,1.924-2.805
			c0.44-1.063,0.66-2.125,0.66-3.189c0-2.565-0.77-4.654-2.31-6.268c-1.467-1.466-3.391-2.2-5.773-2.2h-3.739
			c-1.43,0-2.804-0.266-4.124-0.797c-1.319-0.531-2.438-1.219-3.354-2.063c-1.906-1.795-2.859-4.068-2.859-6.818
			c0-2.089,0.495-3.922,1.485-5.498s2.419-2.805,4.289-3.685c1.136-0.55,2.447-0.952,3.932-1.209
			c1.485-0.257,3.033-0.385,4.646-0.385c1.54,0,3.052,0.101,4.536,0.302c1.485,0.202,2.832,0.505,4.042,0.907l-0.715,2.31
			c-1.173-0.366-2.429-0.632-3.767-0.797c-1.338-0.165-2.667-0.248-3.986-0.248c-1.54,0-2.969,0.11-4.289,0.33
			c-1.319,0.22-2.438,0.532-3.354,0.935c-0.514,0.257-1.027,0.578-1.54,0.963c-0.514,0.385-0.981,0.852-1.402,1.401
			c-0.422,0.551-0.77,1.21-1.044,1.979c-0.275,0.771-0.413,1.669-0.413,2.694c0,2.09,0.696,3.776,2.089,5.06
			c0.696,0.623,1.567,1.154,2.612,1.594c1.045,0.44,2.153,0.66,3.327,0.66l3.629-0.055c1.502,0,2.887,0.247,4.151,0.742
			s2.373,1.219,3.327,2.172c0.99,0.99,1.741,2.163,2.254,3.52c0.513,1.356,0.77,2.841,0.77,4.453
			C499.048,688.547,498.754,689.922,498.168,691.277z"/>
		<path fill="#808184" d="M514.939,697.876v-2.419h6.377v-34.146h-6.377v-2.255h15.176v2.255h-6.379v34.146h6.488v2.419H514.939z"/>
		<path fill="#808184" d="M572.509,696.996c-2.384,0.953-4.894,1.43-7.533,1.43c-2.749,0-5.343-0.532-7.78-1.595
			c-2.438-1.063-4.564-2.502-6.379-4.316s-3.254-3.939-4.316-6.378c-1.063-2.438-1.595-5.05-1.595-7.836
			c0-2.749,0.531-5.342,1.595-7.78c1.063-2.438,2.502-4.564,4.316-6.379s3.94-3.252,6.379-4.316c2.438-1.063,5.031-1.594,7.78-1.594
			c1.905,0,3.748,0.257,5.526,0.77c1.777,0.514,3.454,1.246,5.031,2.199l-1.32,2.034c-2.786-1.723-5.865-2.584-9.237-2.584
			c-2.42,0-4.701,0.468-6.846,1.402s-4.014,2.199-5.608,3.794s-2.859,3.464-3.794,5.608c-0.936,2.145-1.402,4.427-1.402,6.846
			c0,2.456,0.467,4.757,1.402,6.901c0.935,2.144,2.199,4.014,3.794,5.608s3.464,2.859,5.608,3.794s4.426,1.402,6.846,1.402
			c2.199,0,4.279-0.376,6.241-1.128c1.96-0.751,3.711-1.787,5.251-3.106V680.28h-9.897v-2.254h12.316v14.791
			C577.018,694.65,574.891,696.043,572.509,696.996z"/>
		<path fill="#808184" d="M599.671,663.069v34.807h-2.364v-41.074l32.276,36.95V661.42h-7.588v-2.364h9.897v40.91L599.671,663.069z"
			/>
		<path fill="#808184" d="M688.089,697.876v-36.565h-7.368v-2.255h9.787v36.511h16.771v2.31H688.089z"/>
		<path fill="#808184" d="M756.876,686.246c-1.063,2.438-2.502,4.564-4.316,6.379s-3.941,3.254-6.378,4.316
			c-2.438,1.063-5.051,1.595-7.836,1.595c-2.749,0-5.343-0.532-7.78-1.595c-2.438-1.063-4.564-2.502-6.379-4.316
			s-3.254-3.94-4.316-6.379c-1.063-2.438-1.595-5.031-1.595-7.78c0-2.785,0.531-5.397,1.595-7.836
			c1.063-2.437,2.502-4.563,4.316-6.378s3.94-3.253,6.379-4.316c2.438-1.063,5.031-1.595,7.78-1.595
			c2.785,0,5.397,0.532,7.836,1.595c2.437,1.063,4.563,2.502,6.378,4.316s3.253,3.941,4.316,6.378
			c1.063,2.438,1.595,5.051,1.595,7.836C758.471,681.215,757.938,683.809,756.876,686.246z M754.649,671.565
			c-0.936-2.145-2.2-4.015-3.794-5.609c-1.595-1.594-3.465-2.858-5.609-3.794c-2.145-0.935-4.445-1.401-6.9-1.401
			c-2.42,0-4.701,0.467-6.846,1.401c-2.145,0.936-4.014,2.2-5.608,3.794c-1.595,1.595-2.859,3.465-3.794,5.609
			c-0.936,2.145-1.402,4.445-1.402,6.9c0,2.42,0.467,4.701,1.402,6.846c0.935,2.145,2.199,4.014,3.794,5.608
			s3.464,2.859,5.608,3.794c2.145,0.936,4.426,1.402,6.846,1.402c2.455,0,4.756-0.467,6.9-1.402
			c2.145-0.935,4.015-2.199,5.609-3.794c1.594-1.595,2.858-3.464,3.794-5.608c0.935-2.145,1.401-4.426,1.401-6.846
			C756.051,676.011,755.584,673.71,754.649,671.565z"/>
		<path fill="#808184" d="M788.383,698.756l-18.365-39.7h2.639l15.727,33.981l15.671-33.981h2.694L788.383,698.756z"/>
		<path fill="#808184" d="M827.423,697.876v-36.565h-7.313v-2.255h25.403v2.31h-15.671v15.011h15.671v2.31h-15.671v16.881h15.671
			v2.31H827.423z"/>
		<path fill="#808184" d="M892.91,697.876l-11.768-16.771c-0.696,0.073-1.402,0.129-2.117,0.165s-1.438,0.055-2.172,0.055
			c-0.989,0-1.979-0.027-2.969-0.083c-0.99-0.055-1.943-0.155-2.859-0.302v16.936h-2.419v-36.565h-7.313v-2.255h20.399
			c1.686,0,3.244,0.275,4.674,0.825s2.657,1.338,3.685,2.364c1.979,1.979,2.969,4.436,2.969,7.368c0,2.273-0.531,4.271-1.595,5.993
			c-1.063,1.724-2.621,3.062-4.674,4.014c-0.439,0.221-0.926,0.413-1.457,0.578s-1.091,0.321-1.677,0.467l12.097,17.211H892.91z
			 M888.346,663.84c-0.807-0.807-1.778-1.43-2.914-1.87c-1.137-0.439-2.383-0.659-3.739-0.659h-10.667v17.32
			c1.796,0.33,3.702,0.495,5.719,0.495c1.686,0,3.308-0.128,4.866-0.385c1.558-0.257,2.923-0.66,4.097-1.21
			c0.55-0.256,1.117-0.596,1.704-1.018c0.586-0.421,1.118-0.952,1.595-1.595c0.476-0.641,0.861-1.401,1.154-2.281
			s0.44-1.888,0.44-3.024C890.601,667.268,889.849,665.343,888.346,663.84z"/>
		<path fill="#808184" d="M933.709,691.277c-0.586,1.356-1.411,2.566-2.474,3.629c-1.979,1.979-4.271,2.97-6.874,2.97h-0.055h-0.11
			h-11.821v-2.31h11.821c0.99,0,1.943-0.21,2.859-0.632c0.916-0.421,1.76-1.018,2.529-1.787c0.844-0.807,1.485-1.741,1.925-2.805
			c0.44-1.063,0.66-2.125,0.66-3.189c0-2.565-0.77-4.654-2.31-6.268c-1.467-1.466-3.391-2.2-5.773-2.2h-3.739
			c-1.43,0-2.805-0.266-4.124-0.797s-2.438-1.219-3.354-2.063c-1.906-1.795-2.858-4.068-2.858-6.818
			c0-2.089,0.494-3.922,1.484-5.498c0.989-1.576,2.419-2.805,4.289-3.685c1.136-0.55,2.446-0.952,3.932-1.209
			c1.484-0.257,3.032-0.385,4.646-0.385c1.54,0,3.052,0.101,4.537,0.302c1.484,0.202,2.831,0.505,4.041,0.907l-0.715,2.31
			c-1.174-0.366-2.429-0.632-3.767-0.797c-1.339-0.165-2.667-0.248-3.986-0.248c-1.54,0-2.969,0.11-4.289,0.33
			c-1.319,0.22-2.438,0.532-3.354,0.935c-0.515,0.257-1.027,0.578-1.54,0.963c-0.514,0.385-0.981,0.852-1.402,1.401
			c-0.422,0.551-0.77,1.21-1.045,1.979c-0.274,0.771-0.412,1.669-0.412,2.694c0,2.09,0.696,3.776,2.09,5.06
			c0.695,0.623,1.566,1.154,2.611,1.594c1.045,0.44,2.153,0.66,3.327,0.66l3.629-0.055c1.503,0,2.887,0.247,4.151,0.742
			s2.373,1.219,3.326,2.172c0.99,0.99,1.741,2.163,2.255,3.52c0.513,1.356,0.77,2.841,0.77,4.453
			C934.589,688.547,934.295,689.922,933.709,691.277z"/>
		<path fill="#808184" d="M951.415,692.707l-1.045-2.145l24.799-12.316l-24.799-12.152l1.045-2.199l29.252,14.297L951.415,692.707z"
			/>
	</g>
</g>
</svg>
